<svg width="100" height="100" viewBox="0 0 100 100" fill="none" xmlns="http://www.w3.org/2000/svg">
<rect width="100" height="100" rx="10" fill="#123761"/>
<path d="M52.7598 25.8036V19.9214C63.1123 21.49 60.4719 32.8622 57.8576 38.3522L52.7598 48.1558V37.5679C57.7792 29.4113 54.8512 26.3265 52.7598 25.8036Z" fill="white"/>
<path d="M79.0333 34.0386H64.9161V35.6071H66.4847C68.6807 35.6071 68.9683 37.4371 68.8376 38.3522L57.0733 62.665L51.1911 51.2929L49.6226 58.3515L57.0733 73.645C62.1711 63.1879 72.759 41.5677 74.3276 38.7443C75.8962 35.9209 78.1183 35.4764 79.0333 35.6071V34.0386Z" fill="white"/>
<path d="M17.4669 34.0386H31.5841V35.6071H30.0155C27.8195 35.6071 27.5319 37.4371 27.6627 38.3522L39.427 62.665L45.3091 51.2929L46.8777 58.3515L39.427 73.645C34.3291 63.1879 23.7412 41.5677 22.1727 38.7443C20.6041 35.9209 18.3819 35.4764 17.4669 35.6071V34.0386Z" fill="white"/>
<path d="M57.8575 16H39.0347V17.5686C44.0541 16.9411 45.0475 19.9214 44.9169 21.49V68.1551C45.2306 74.4293 44.0019 77.5665 43.3483 78.3508C38.6426 83.0565 36.159 80.0501 35.5054 77.9586C35.244 76.5208 34.0152 74.0372 31.1918 75.6058C28.3684 77.1744 29.7539 79.9194 30.7997 81.0958C45.5442 89.2524 51.0604 72.4191 51.9754 62.9829V29.3329V21.49C51.9754 17.7254 55.8968 17.3071 57.8575 17.5686V16Z" fill="white"/>
<path d="M43.7404 25.8036V19.9214C33.3878 21.49 36.0282 32.8622 38.6425 38.3522L43.7404 48.1558L51.9754 63.0572L57.0732 62.6651L43.7404 37.5679C38.7209 29.4113 41.6489 26.3265 43.7404 25.8036Z" fill="white"/>
</svg>
