<svg width="100" height="100" viewBox="0 0 100 100" fill="none" xmlns="http://www.w3.org/2000/svg">
<rect width="100" height="100" fill="white"/>
<path d="M54 19V11.5C67.2 13.5 63.8333 28 60.5 35L54 47.5V34C60.4 23.6 56.6667 19.6667 54 19Z" fill="#123761"/>
<path d="M87.5 29.5H69.5V31.5H71.5C74.3 31.5 74.6667 33.8333 74.5 35L59.5 66L52 51.5L50 60.5L59.5 80C66 66.6667 79.5 39.1 81.5 35.5C83.5 31.9 86.3333 31.3333 87.5 31.5V29.5Z" fill="#123761"/>
<path d="M9 29.5H27V31.5H25C22.2 31.5 21.8333 33.8333 22 35L37 66L44.5 51.5L46.5 60.5L37 80C30.5 66.6667 17 39.1 15 35.5C13 31.9 10.1667 31.3333 9 31.5V29.5Z" fill="#123761"/>
<path d="M60.5 6.5H36.5V8.5C42.8999 7.7 44.1666 11.5 44 13.5V73C44.4 81 42.8333 85 42 86C36 92 32.8333 88.1667 32 85.5C31.6667 83.6667 30.1 80.5 26.5 82.5C22.9 84.5 24.6666 88 26 89.5C44.8 99.9 51.8333 78.4369 53 66.4053V23.5V13.5C53 8.7 58 8.16667 60.5 8.5V6.5Z" fill="url(#paint0_linear_116_4)"/>
<path d="M42.5 19V11.5C29.3 13.5 32.6667 28 36 35L42.5 47.5L53 66.5L59.5 66L42.5 34C36.1 23.6 39.8333 19.6667 42.5 19Z" fill="#123761"/>
<defs>
<linearGradient id="paint0_linear_116_4" x1="42.4354" y1="6.5" x2="42.4354" y2="92.2619" gradientUnits="userSpaceOnUse">
<stop stop-color="#8F8E8E"/>
<stop offset="1" stop-color="#8F8E8E"/>
</linearGradient>
</defs>
</svg>
